<svg xmlns="http://www.w3.org/2000/svg" viewBox="0 0 256 256" width="256" height="256">
  <defs>
    <linearGradient id="bg" x1="0%" y1="0%" x2="100%" y2="100%">
      <stop offset="0%" style="stop-color:#1a1a2e"/>
      <stop offset="100%" style="stop-color:#0a0a14"/>
    </linearGradient>
    <linearGradient id="glow" x1="0%" y1="0%" x2="0%" y2="100%">
      <stop offset="0%" style="stop-color:#e2b714"/>
      <stop offset="100%" style="stop-color:#c49000"/>
    </linearGradient>
  </defs>

  <style>
    @keyframes cursor-blink { 0%,49% { opacity: 1; } 50%,100% { opacity: 0; } }
    @keyframes scan { 0% { transform: translateY(-60px); opacity: 0; } 20% { opacity: 0.6; } 80% { opacity: 0.6; } 100% { transform: translateY(60px); opacity: 0; } }
    .cursor { animation: cursor-blink 1.2s step-end infinite; }
    .scan-line { animation: scan 3s ease-in-out infinite; }
  </style>

  <!-- Background -->
  <circle cx="128" cy="128" r="120" fill="url(#bg)" stroke="#e2b714" stroke-width="3"/>

  <!-- Globe/web lines (world wide web) -->
  <circle cx="128" cy="128" r="70" fill="none" stroke="#51afef" stroke-width="0.8" opacity="0.3"/>
  <ellipse cx="128" cy="128" rx="35" ry="70" fill="none" stroke="#51afef" stroke-width="0.8" opacity="0.3"/>
  <ellipse cx="128" cy="128" rx="55" ry="70" fill="none" stroke="#51afef" stroke-width="0.6" opacity="0.2"/>
  <line x1="58" y1="128" x2="198" y2="128" stroke="#51afef" stroke-width="0.6" opacity="0.3"/>
  <line x1="72" y1="90" x2="184" y2="90" stroke="#51afef" stroke-width="0.5" opacity="0.2"/>
  <line x1="72" y1="166" x2="184" y2="166" stroke="#51afef" stroke-width="0.5" opacity="0.2"/>

  <!-- Terminal window frame -->
  <rect x="48" y="60" width="160" height="110" rx="6" fill="#0d0d0d" stroke="#e2b714" stroke-width="2"/>
  <!-- Title bar -->
  <rect x="48" y="60" width="160" height="16" rx="6" fill="#1a1a2e"/>
  <rect x="48" y="70" width="160" height="6" fill="#1a1a2e"/>
  <!-- Window buttons -->
  <circle cx="60" cy="68" r="3" fill="#e55"/>
  <circle cx="72" cy="68" r="3" fill="#e2b714"/>
  <circle cx="84" cy="68" r="3" fill="#4c4"/>

  <!-- Browser content lines -->
  <!-- URL bar -->
  <rect x="56" y="80" width="144" height="10" rx="2" fill="#1a1a2e"/>
  <text x="60" y="88" font-family="monospace" font-size="6" fill="#51afef">https://</text>
  <rect class="cursor" x="96" y="81" width="4" height="8" fill="#e2b714" opacity="0.8"/>

  <!-- Heading -->
  <rect x="56" y="96" width="80" height="6" rx="1" fill="#e2b714" opacity="0.8"/>

  <!-- Text lines -->
  <rect x="56" y="108" width="136" height="3" rx="1" fill="#aab" opacity="0.4"/>
  <rect x="56" y="114" width="120" height="3" rx="1" fill="#aab" opacity="0.4"/>
  <rect x="56" y="120" width="128" height="3" rx="1" fill="#aab" opacity="0.4"/>

  <!-- Links (cyan) -->
  <rect x="56" y="130" width="40" height="4" rx="1" fill="#51afef" opacity="0.7"/>
  <rect x="102" y="130" width="50" height="4" rx="1" fill="#51afef" opacity="0.7"/>

  <!-- Image placeholder -->
  <rect x="56" y="140" width="44" height="24" rx="2" fill="#1a1a2e" stroke="#e2b714" stroke-width="0.8"/>
  <polygon points="62,158 72,148 78,154 86,146 94,158" fill="#4c4" opacity="0.5"/>
  <circle cx="88" cy="148" r="3" fill="#e2b714" opacity="0.5"/>

  <!-- More text -->
  <rect x="106" y="142" width="90" height="3" rx="1" fill="#aab" opacity="0.4"/>
  <rect x="106" y="148" width="80" height="3" rx="1" fill="#aab" opacity="0.4"/>
  <rect x="106" y="154" width="86" height="3" rx="1" fill="#aab" opacity="0.4"/>

  <!-- Scan line effect -->
  <rect class="scan-line" x="48" y="128" width="160" height="1" fill="#51afef" opacity="0.15"/>

  <!-- Status bar at bottom -->
  <rect x="48" y="164" width="160" height="6" fill="#1a1a2e"/>
  <text x="54" y="169" font-family="monospace" font-size="4.5" fill="#888">101 links | ? help | : command</text>

  <!-- brrowser text -->
  <text x="128" y="210" font-family="monospace" font-size="20" font-weight="bold" fill="url(#glow)" text-anchor="middle" letter-spacing="2">brrowser</text>
  <text x="128" y="226" font-family="monospace" font-size="8" fill="#51afef" text-anchor="middle" opacity="0.7">terminal web browser</text>
</svg>
